<svg width="633" height="107" viewBox="0 0 633 107" fill="none" xmlns="http://www.w3.org/2000/svg">
<path d="M73.3219 0.630859C96.8219 0.630859 119.112 5.16086 136.052 12.5309C105.282 12.9209 74.8019 21.6109 48.8119 38.0909C43.2719 41.6109 37.8919 45.4709 31.8419 48.0209C25.7919 50.5609 18.8419 51.6909 12.6519 49.5009C1.2919 45.4809 -3.56812 29.8009 2.88188 19.8109C3.90188 18.2309 5.16191 16.8009 6.60191 15.5909C7.01191 15.2409 11.1219 12.3909 11.1919 12.5409C27.8119 4.93086 49.9219 0.56086 73.3319 0.64086L73.3219 0.630859Z" fill="url(#paint0_linear_1_55)"/>
<path d="M73.8818 0.63089C50.3818 0.63089 28.0319 4.75089 11.1519 12.5309C41.9219 12.9209 72.4018 21.6109 98.3918 38.0909C103.932 41.6109 109.312 45.4709 115.362 48.0209C121.412 50.5609 128.362 51.6909 134.552 49.5009C146.162 45.3909 150.992 29.0909 143.852 19.1709C139.392 12.9809 131.852 10.5009 124.902 8.20089C117.172 5.64089 109.202 3.84089 101.152 2.61089C92.1319 1.24089 82.9919 0.60089 73.8719 0.63089H73.8818Z" fill="url(#paint1_linear_1_55)"/>
<path d="M73.8818 106.541C50.3818 106.541 28.0919 102.011 11.1519 94.6409C41.9219 94.2509 72.4018 85.5609 98.3918 69.0809C103.932 65.5609 109.312 61.7009 115.362 59.1509C121.412 56.6009 128.362 55.4809 134.552 57.6709C145.912 61.6909 150.772 77.3709 144.322 87.3609C143.302 88.9409 142.042 90.3709 140.602 91.5809C140.192 91.9309 136.082 94.7809 136.012 94.6309C119.392 102.241 97.2819 106.611 73.8719 106.531L73.8818 106.541Z" fill="url(#paint2_linear_1_55)"/>
<path d="M73.3221 106.541C96.8221 106.541 119.172 102.421 136.052 94.6408C105.282 94.2508 74.8022 85.5608 48.8122 69.0808C43.2722 65.5608 37.8922 61.7008 31.8422 59.1508C25.7922 56.6108 18.8422 55.4808 12.6522 57.6708C1.04216 61.7808 -3.78782 78.0808 3.35218 88.0008C7.81218 94.1908 15.3522 96.6708 22.3022 98.9708C30.0322 101.531 38.0022 103.331 46.0522 104.561C55.0722 105.931 64.2122 106.571 73.3322 106.541H73.3221Z" fill="url(#paint3_linear_1_55)"/>
<path d="M190.562 87.161C185.852 87.161 181.852 86.401 178.562 84.891C175.272 83.381 172.762 81.431 171.012 79.051C169.262 76.671 168.332 74.141 168.222 71.461C168.222 71.001 168.392 70.591 168.742 70.241C169.092 69.891 169.522 69.721 170.052 69.721H171.792C172.372 69.721 172.822 69.891 173.142 70.241C173.462 70.591 173.652 71.001 173.712 71.461C173.942 73.091 174.672 74.701 175.892 76.301C177.112 77.901 178.912 79.241 181.302 80.311C183.682 81.391 186.772 81.921 190.552 81.921C196.252 81.921 200.412 80.891 203.032 78.821C205.652 76.761 206.962 73.981 206.962 70.491C206.962 68.171 206.282 66.291 204.912 64.861C203.542 63.441 201.462 62.1609 198.672 61.021C195.882 59.8909 192.302 58.621 187.942 57.231C183.812 55.891 180.412 54.511 177.732 53.091C175.052 51.6709 173.092 49.941 171.842 47.901C170.592 45.871 169.962 43.251 169.962 40.051C169.962 37.081 170.752 34.421 172.322 32.071C173.892 29.711 176.172 27.841 179.172 26.441C182.172 25.041 185.812 24.351 190.122 24.351C193.552 24.351 196.552 24.821 199.112 25.751C201.672 26.681 203.792 27.921 205.482 29.461C207.172 31.001 208.452 32.661 209.322 34.431C210.192 36.201 210.662 37.931 210.722 39.621C210.722 40.031 210.572 40.421 210.282 40.801C209.992 41.181 209.522 41.371 208.882 41.371H207.132C206.842 41.371 206.482 41.251 206.042 41.021C205.602 40.791 205.332 40.321 205.212 39.621C204.862 36.711 203.332 34.311 200.632 32.421C197.932 30.531 194.422 29.581 190.122 29.581C185.822 29.581 182.302 30.421 179.562 32.111C176.832 33.801 175.462 36.441 175.462 40.051C175.462 42.381 176.072 44.281 177.292 45.761C178.512 47.241 180.432 48.551 183.052 49.691C185.672 50.821 189.042 52.061 193.172 53.401C197.532 54.801 201.142 56.191 203.992 57.591C206.842 58.991 208.962 60.691 210.362 62.691C211.762 64.701 212.452 67.301 212.452 70.501C212.452 74.051 211.562 77.061 209.792 79.531C208.022 82.001 205.502 83.8909 202.242 85.201C198.982 86.511 195.092 87.161 190.552 87.161H190.562Z" fill="#49515E"/>
<path d="M238.102 87.1609C232.462 87.1609 227.982 85.3109 224.662 81.6209C221.342 77.9309 219.452 73.0909 218.992 67.0909C218.932 66.2209 218.902 65.0609 218.902 63.6009C218.902 62.1409 218.932 60.9809 218.992 60.1109C219.282 56.1609 220.212 52.6709 221.782 49.6409C223.352 46.6209 225.522 44.2609 228.282 42.5709C231.042 40.8809 234.312 40.0409 238.092 40.0409C242.162 40.0409 245.622 40.9409 248.472 42.7409C251.322 44.5409 253.512 47.1309 255.062 50.5109C256.602 53.8809 257.372 57.9009 257.372 62.5509V63.8609C257.372 64.4409 257.182 64.9109 256.802 65.2609C256.422 65.6109 255.942 65.7809 255.362 65.7809H224.302V66.6509C224.422 69.2709 225.032 71.7509 226.132 74.1109C227.232 76.4709 228.802 78.3809 230.842 79.8709C232.872 81.3509 235.292 82.1009 238.082 82.1009C240.582 82.1009 242.662 81.7209 244.322 80.9709C245.982 80.2109 247.302 79.3909 248.292 78.4809C249.282 77.5809 249.922 76.9009 250.212 76.4309C250.732 75.6809 251.142 75.2209 251.432 75.0809C251.722 74.9409 252.192 74.8609 252.832 74.8609H254.232C254.752 74.8609 255.202 75.0209 255.582 75.3409C255.962 75.6609 256.122 76.0809 256.062 76.6009C256.002 77.4209 255.552 78.4209 254.712 79.6109C253.872 80.8009 252.672 81.9809 251.132 83.1409C249.592 84.3009 247.712 85.2609 245.502 86.0209C243.292 86.7809 240.822 87.1509 238.082 87.1509L238.102 87.1609ZM224.322 60.9009H252.062V60.5509C252.062 57.6409 251.512 55.0309 250.402 52.7009C249.292 50.3709 247.702 48.5309 245.602 47.1609C243.512 45.7909 241.012 45.1109 238.102 45.1109C235.192 45.1109 232.702 45.7909 230.642 47.1609C228.572 48.5309 227.002 50.3709 225.932 52.7009C224.852 55.0309 224.322 57.6409 224.322 60.5509V60.9009Z" fill="#49515E"/>
<path d="M268.292 86.291C267.712 86.291 267.242 86.1209 266.892 85.771C266.542 85.421 266.372 84.961 266.372 84.371V26.271C266.372 25.691 266.542 25.221 266.892 24.871C267.242 24.521 267.702 24.351 268.292 24.351H269.772C270.352 24.351 270.822 24.531 271.172 24.871C271.522 25.221 271.692 25.691 271.692 26.271V84.371C271.692 84.951 271.522 85.421 271.172 85.771C270.822 86.1209 270.352 86.291 269.772 86.291H268.292Z" fill="#49515E"/>
<path d="M285.302 86.291C284.722 86.291 284.252 86.1209 283.902 85.771C283.552 85.421 283.382 84.961 283.382 84.371V26.271C283.382 25.691 283.552 25.221 283.902 24.871C284.252 24.521 284.712 24.351 285.302 24.351H286.782C287.362 24.351 287.832 24.531 288.182 24.871C288.532 25.221 288.702 25.691 288.702 26.271V84.371C288.702 84.951 288.532 85.421 288.182 85.771C287.832 86.1209 287.362 86.291 286.782 86.291H285.302Z" fill="#49515E"/>
<path d="M317.142 87.1609C311.502 87.1609 307.022 85.3109 303.702 81.6209C300.382 77.9309 298.492 73.0909 298.032 67.0909C297.972 66.2209 297.942 65.0609 297.942 63.6009C297.942 62.1409 297.972 60.9809 298.032 60.1109C298.322 56.1609 299.252 52.6709 300.822 49.6409C302.392 46.6209 304.562 44.2609 307.322 42.5709C310.082 40.8809 313.352 40.0409 317.132 40.0409C321.202 40.0409 324.662 40.9409 327.512 42.7409C330.362 44.5409 332.552 47.1309 334.102 50.5109C335.642 53.8809 336.412 57.9009 336.412 62.5509V63.8609C336.412 64.4409 336.222 64.9109 335.842 65.2609C335.462 65.6109 334.982 65.7809 334.402 65.7809H303.342V66.6509C303.462 69.2709 304.072 71.7509 305.172 74.1109C306.272 76.4709 307.842 78.3809 309.882 79.8709C311.912 81.3509 314.332 82.1009 317.122 82.1009C319.622 82.1009 321.702 81.7209 323.362 80.9709C325.022 80.2109 326.342 79.3909 327.332 78.4809C328.322 77.5809 328.962 76.9009 329.252 76.4309C329.772 75.6809 330.182 75.2209 330.472 75.0809C330.762 74.9409 331.232 74.8609 331.872 74.8609H333.272C333.792 74.8609 334.242 75.0209 334.622 75.3409C335.002 75.6609 335.162 76.0809 335.102 76.6009C335.042 77.4209 334.592 78.4209 333.752 79.6109C332.912 80.8009 331.712 81.9809 330.172 83.1409C328.632 84.3009 326.752 85.2609 324.542 86.0209C322.332 86.7809 319.862 87.1509 317.122 87.1509L317.142 87.1609ZM303.362 60.9009H331.102V60.5509C331.102 57.6409 330.552 55.0309 329.442 52.7009C328.332 50.3709 326.742 48.5309 324.642 47.1609C322.552 45.7909 320.052 45.1109 317.142 45.1109C314.232 45.1109 311.742 45.7909 309.682 47.1609C307.612 48.5309 306.042 50.3709 304.972 52.7009C303.892 55.0309 303.362 57.6409 303.362 60.5509V60.9009Z" fill="#49515E"/>
<path d="M347.242 86.2909C346.662 86.2909 346.192 86.1209 345.842 85.7709C345.492 85.4209 345.322 84.9609 345.322 84.3709V42.9309C345.322 42.3509 345.492 41.8709 345.842 41.4909C346.192 41.1109 346.652 40.9209 347.242 40.9209H348.642C349.222 40.9209 349.702 41.1109 350.082 41.4909C350.462 41.8709 350.652 42.3509 350.652 42.9309V46.9409C351.702 44.9109 353.212 43.3909 355.192 42.4009C357.172 41.4109 359.612 40.9209 362.522 40.9209H365.752C366.332 40.9209 366.802 41.0909 367.152 41.4409C367.502 41.7909 367.672 42.2609 367.672 42.8409V44.0609C367.672 44.6409 367.502 45.1109 367.152 45.4609C366.802 45.8109 366.332 45.9809 365.752 45.9809H362.002C358.512 45.9809 355.752 47.0009 353.712 49.0309C351.672 51.0709 350.662 53.8309 350.662 57.3209V84.3709C350.662 84.9509 350.472 85.4209 350.092 85.7709C349.712 86.1209 349.232 86.2909 348.652 86.2909H347.252H347.242Z" fill="#49515E"/>
<path d="M376.202 86.291C375.622 86.291 375.142 86.121 374.762 85.771C374.382 85.421 374.192 84.961 374.192 84.371V27.231C374.192 26.591 374.382 26.101 374.762 25.751C375.142 25.401 375.622 25.231 376.202 25.231H378.382C378.962 25.231 379.402 25.381 379.692 25.671C379.982 25.961 380.162 26.191 380.212 26.371L400.012 64.931L419.902 26.371C420.022 26.191 420.212 25.961 420.472 25.671C420.732 25.381 421.152 25.231 421.732 25.231H423.822C424.462 25.231 424.952 25.411 425.302 25.751C425.652 26.101 425.822 26.591 425.822 27.231V84.371C425.822 84.951 425.652 85.421 425.302 85.771C424.952 86.121 424.462 86.291 423.822 86.291H422.252C421.672 86.291 421.202 86.121 420.852 85.771C420.502 85.421 420.332 84.961 420.332 84.371V37.081L403.672 69.881C403.442 70.461 403.102 70.901 402.672 71.191C402.232 71.481 401.672 71.631 400.972 71.631H399.052C398.352 71.631 397.802 71.491 397.392 71.191C396.982 70.901 396.632 70.461 396.342 69.881L379.682 37.081V84.361C379.682 84.941 379.512 85.411 379.162 85.761C378.812 86.111 378.342 86.281 377.762 86.281H376.192L376.202 86.291Z" fill="#49515E"/>
<path d="M455.332 87.1609C449.692 87.1609 445.212 85.3109 441.892 81.6209C438.572 77.9309 436.682 73.0909 436.222 67.0909C436.162 66.2209 436.132 65.0609 436.132 63.6009C436.132 62.1409 436.162 60.9809 436.222 60.1109C436.512 56.1609 437.442 52.6709 439.012 49.6409C440.582 46.6209 442.752 44.2609 445.512 42.5709C448.272 40.8809 451.542 40.0409 455.322 40.0409C459.392 40.0409 462.852 40.9409 465.702 42.7409C468.552 44.5409 470.742 47.1309 472.292 50.5109C473.832 53.8809 474.602 57.9009 474.602 62.5509V63.8609C474.602 64.4409 474.412 64.9109 474.032 65.2609C473.652 65.6109 473.172 65.7809 472.592 65.7809H441.532V66.6509C441.652 69.2709 442.262 71.7509 443.362 74.1109C444.462 76.4709 446.032 78.3809 448.072 79.8709C450.102 81.3509 452.522 82.1009 455.312 82.1009C457.812 82.1009 459.892 81.7209 461.552 80.9709C463.212 80.2109 464.532 79.3909 465.522 78.4809C466.512 77.5809 467.152 76.9009 467.442 76.4309C467.962 75.6809 468.372 75.2209 468.662 75.0809C468.952 74.9409 469.422 74.8609 470.062 74.8609H471.462C471.982 74.8609 472.432 75.0209 472.812 75.3409C473.192 75.6609 473.352 76.0809 473.292 76.6009C473.232 77.4209 472.782 78.4209 471.942 79.6109C471.102 80.8009 469.902 81.9809 468.362 83.1409C466.822 84.3009 464.942 85.2609 462.732 86.0209C460.522 86.7809 458.052 87.1509 455.312 87.1509L455.332 87.1609ZM441.552 60.9009H469.292V60.5509C469.292 57.6409 468.742 55.0309 467.632 52.7009C466.522 50.3709 464.932 48.5309 462.832 47.1609C460.742 45.7909 458.242 45.1109 455.332 45.1109C452.422 45.1109 449.932 45.7909 447.872 47.1609C445.802 48.5309 444.232 50.3709 443.162 52.7009C442.082 55.0309 441.552 57.6409 441.552 60.5509V60.9009Z" fill="#49515E"/>
<path d="M498.422 86.2909C495.402 86.2909 493.012 85.6509 491.272 84.3709C489.522 83.0909 488.302 81.3509 487.612 79.1409C486.912 76.9309 486.562 74.4609 486.562 71.7209V45.9809H479.762C479.182 45.9809 478.712 45.8109 478.362 45.4609C478.012 45.1109 477.842 44.6509 477.842 44.0609V42.8409C477.842 42.2609 478.012 41.7909 478.362 41.4409C478.712 41.0909 479.172 40.9209 479.762 40.9209H486.562V26.2609C486.562 25.6809 486.732 25.2109 487.082 24.8609C487.432 24.5109 487.892 24.3409 488.482 24.3409H489.962C490.542 24.3409 491.012 24.5209 491.362 24.8609C491.712 25.2109 491.882 25.6809 491.882 26.2609V40.9209H502.702C503.282 40.9209 503.752 41.0909 504.102 41.4409C504.452 41.7909 504.622 42.2609 504.622 42.8409V44.0609C504.622 44.6409 504.452 45.1109 504.102 45.4609C503.752 45.8109 503.282 45.9809 502.702 45.9809H491.882V71.3709C491.882 74.4509 492.392 76.8709 493.412 78.6109C494.432 80.3509 496.252 81.2309 498.862 81.2309H503.572C504.152 81.2309 504.622 81.4109 504.972 81.7509C505.322 82.1009 505.492 82.5709 505.492 83.1509V84.3709C505.492 84.9509 505.322 85.4209 504.972 85.7709C504.622 86.1209 504.152 86.2909 503.572 86.2909H498.422Z" fill="#49515E"/>
<path d="M513.782 86.2909C513.202 86.2909 512.732 86.1209 512.382 85.7709C512.032 85.4209 511.862 84.9609 511.862 84.3709V42.9309C511.862 42.3509 512.032 41.8709 512.382 41.4909C512.732 41.1109 513.192 40.9209 513.782 40.9209H515.182C515.762 40.9209 516.242 41.1109 516.622 41.4909C517.002 41.8709 517.192 42.3509 517.192 42.9309V46.9409C518.242 44.9109 519.752 43.3909 521.732 42.4009C523.712 41.4109 526.152 40.9209 529.062 40.9209H532.292C532.872 40.9209 533.342 41.0909 533.692 41.4409C534.042 41.7909 534.212 42.2609 534.212 42.8409V44.0609C534.212 44.6409 534.042 45.1109 533.692 45.4609C533.342 45.8109 532.872 45.9809 532.292 45.9809H528.542C525.052 45.9809 522.292 47.0009 520.252 49.0309C518.212 51.0709 517.202 53.8309 517.202 57.3209V84.3709C517.202 84.9509 517.012 85.4209 516.632 85.7709C516.252 86.1209 515.772 86.2909 515.192 86.2909H513.792H513.782Z" fill="#49515E"/>
<path d="M540.562 31.5909C539.982 31.5909 539.512 31.4109 539.162 31.0709C538.812 30.7209 538.642 30.2609 538.642 29.6709V26.3509C538.642 25.7709 538.812 25.2909 539.162 24.9109C539.512 24.5309 539.972 24.3409 540.562 24.3409H543.882C544.462 24.3409 544.942 24.5309 545.322 24.9109C545.702 25.2909 545.892 25.7709 545.892 26.3509V29.6709C545.892 30.2509 545.702 30.7209 545.322 31.0709C544.942 31.4209 544.462 31.5909 543.882 31.5909H540.562ZM541.522 86.2909C540.942 86.2909 540.472 86.1209 540.122 85.7709C539.772 85.4209 539.602 84.9609 539.602 84.3709V42.8409C539.602 42.2609 539.772 41.7909 540.122 41.4409C540.472 41.0909 540.932 40.9209 541.522 40.9209H543.002C543.582 40.9209 544.052 41.0909 544.402 41.4409C544.752 41.7909 544.922 42.2609 544.922 42.8409V84.3709C544.922 84.9509 544.752 85.4209 544.402 85.7709C544.052 86.1209 543.582 86.2909 543.002 86.2909H541.522Z" fill="#49515E"/>
<path d="M573.621 87.1609C569.551 87.1609 566.091 86.3609 563.241 84.7609C560.391 83.1609 558.221 80.8509 556.741 77.8209C555.261 74.8009 554.462 71.2209 554.342 67.0909C554.282 66.2209 554.251 65.0609 554.251 63.6009C554.251 62.1409 554.282 60.9809 554.342 60.1109C554.462 55.9209 555.261 52.3309 556.741 49.3409C558.221 46.3509 560.391 44.0509 563.241 42.4509C566.091 40.8509 569.551 40.0509 573.621 40.0509C576.701 40.0509 579.361 40.4709 581.601 41.3109C583.841 42.1509 585.691 43.2609 587.141 44.6309C588.591 46.0009 589.702 47.5009 590.462 49.1209C591.212 50.7509 591.622 52.3509 591.682 53.9209C591.742 54.5009 591.562 54.9709 591.161 55.3209C590.751 55.6709 590.291 55.8409 589.761 55.8409H588.542C587.962 55.8409 587.541 55.7109 587.281 55.4509C587.021 55.1909 586.742 54.7109 586.452 54.0109C585.232 50.6909 583.562 48.3809 581.432 47.0809C579.312 45.7709 576.701 45.1209 573.621 45.1209C569.661 45.1209 566.392 46.3309 563.812 48.7409C561.222 51.1509 559.842 55.1009 559.672 60.5609C559.552 62.6009 559.552 64.6309 559.672 66.6709C559.842 72.1409 561.232 76.0809 563.812 78.4909C566.402 80.9009 569.671 82.1109 573.621 82.1109C576.701 82.1109 579.302 81.4609 581.432 80.1509C583.552 78.8409 585.222 76.5309 586.452 73.2109C586.742 72.5109 587.021 72.0309 587.281 71.7709C587.541 71.5109 587.962 71.3809 588.542 71.3809H589.761C590.281 71.3809 590.751 71.5609 591.161 71.9009C591.571 72.2509 591.742 72.7209 591.682 73.3009C591.622 74.5809 591.361 75.8609 590.901 77.1409C590.431 78.4209 589.721 79.6709 588.761 80.8909C587.801 82.1109 586.621 83.1909 585.231 84.1209C583.831 85.0509 582.162 85.7909 580.212 86.3509C578.262 86.9009 576.071 87.1809 573.621 87.1809V87.1609Z" fill="#49515E"/>
<path d="M614.972 87.1609C611.952 87.1609 609.342 86.7509 607.162 85.9409C604.982 85.1309 603.192 84.1509 601.792 83.0209C600.392 81.8909 599.362 80.7709 598.692 79.6609C598.022 78.5609 597.662 77.7109 597.602 77.1309C597.542 76.4909 597.742 76.0109 598.212 75.6909C598.682 75.3709 599.112 75.2109 599.522 75.2109H600.832C601.182 75.2109 601.482 75.2709 601.752 75.3909C602.022 75.5109 602.352 75.8309 602.752 76.3509C603.512 77.3409 604.382 78.2809 605.372 79.1909C606.362 80.0909 607.622 80.8009 609.172 81.3309C610.712 81.8509 612.642 82.1209 614.972 82.1209C618.462 82.1209 621.342 81.4509 623.612 80.1109C625.882 78.7709 627.012 76.7909 627.012 74.1809C627.012 72.5509 626.562 71.2409 625.662 70.2509C624.762 69.2609 623.232 68.3909 621.082 67.6309C618.932 66.8809 616.022 66.0909 612.362 65.2709C608.702 64.4009 605.892 63.3509 603.942 62.1309C601.992 60.9109 600.672 59.5009 599.972 57.9009C599.272 56.3009 598.922 54.5709 598.922 52.7109C598.922 50.6709 599.502 48.6809 600.662 46.7309C601.822 44.7809 603.552 43.1809 605.852 41.9309C608.152 40.6809 611.042 40.0509 614.532 40.0509C617.382 40.0509 619.812 40.4309 621.812 41.1809C623.822 41.9409 625.462 42.8509 626.742 43.9309C628.022 45.0109 628.972 46.0709 629.582 47.1109C630.192 48.1609 630.522 49.0009 630.582 49.6409C630.642 50.2209 630.462 50.6909 630.062 51.0409C629.652 51.3909 629.192 51.5609 628.662 51.5609H627.352C626.882 51.5609 626.512 51.4609 626.222 51.2609C625.932 51.0609 625.672 50.7809 625.442 50.4309C624.862 49.5009 624.162 48.6309 623.352 47.8109C622.532 47.0009 621.442 46.3409 620.082 45.8509C618.712 45.3609 616.872 45.1109 614.542 45.1109C611.052 45.1109 608.462 45.8209 606.782 47.2509C605.092 48.6809 604.252 50.4909 604.252 52.7009C604.252 53.9809 604.602 55.1009 605.302 56.0609C606.002 57.0209 607.312 57.8909 609.232 58.6809C611.152 59.4709 613.942 60.2909 617.602 61.1709C621.322 61.9909 624.262 62.9909 626.412 64.1809C628.562 65.3709 630.092 66.7809 630.992 68.4109C631.892 70.0409 632.342 71.9609 632.342 74.1709C632.342 76.5009 631.692 78.6509 630.382 80.6309C629.072 82.6109 627.122 84.1909 624.532 85.3809C621.942 86.5709 618.762 87.1709 614.982 87.1709L614.972 87.1609Z" fill="#49515E"/>
<defs>
<linearGradient id="paint0_linear_1_55" x1="-0.00811572" y1="25.6509" x2="136.042" y2="25.6509" gradientUnits="userSpaceOnUse">
<stop offset="0.28" stop-color="#69B4F9"/>
<stop offset="1" stop-color="#DCF2FE"/>
</linearGradient>
<linearGradient id="paint1_linear_1_55" x1="147.202" y1="25.6509" x2="11.1519" y2="25.6509" gradientUnits="userSpaceOnUse">
<stop stop-color="#69B4F9"/>
<stop offset="0.82" stop-color="#DCF2FE"/>
</linearGradient>
<linearGradient id="paint2_linear_1_55" x1="147.202" y1="81.5209" x2="11.1519" y2="81.5209" gradientUnits="userSpaceOnUse">
<stop offset="0.28" stop-color="#69B4F9"/>
<stop offset="1" stop-color="#DCF2FE"/>
</linearGradient>
<linearGradient id="paint3_linear_1_55" x1="0.00217299" y1="81.5208" x2="136.052" y2="81.5208" gradientUnits="userSpaceOnUse">
<stop stop-color="#69B4F9"/>
<stop offset="0.82" stop-color="#DCF2FE"/>
</linearGradient>
</defs>
</svg>
